<?xml version="1.0" encoding="utf-8"?>
<!-- Generator: Adobe Illustrator 13.0.2, SVG Export Plug-In . SVG Version: 6.00 Build 14948)  -->
<!DOCTYPE svg PUBLIC "-//W3C//DTD SVG 1.1//EN" "http://www.w3.org/Graphics/SVG/1.1/DTD/svg11.dtd">
<svg version="1.1" xmlns="http://www.w3.org/2000/svg" xmlns:xlink="http://www.w3.org/1999/xlink" x="0px" y="0px" width="1024px"
	 height="614.293px" viewBox="0 0 1024 614.293" enable-background="new 0 0 1024 614.293" xml:space="preserve">
<g id="Layer_3">
</g>
<g id="Flag">
	<rect fill-rule="evenodd" clip-rule="evenodd" fill="#D31145" width="1024" height="614.293"/>
	<g transform="scale(1.5625)">
		<g>
			<path fill="#009B7B" stroke="#010101" stroke-width="0.9768" stroke-linecap="square" d="M311.279,180.937l-53.088,0.048
				l60.432,43.881l9.063-6.582l-36.632-26.616l16.742-0.047L311.279,180.937z"/>
			<path fill="#009B7B" stroke="#010101" stroke-width="0.9768" stroke-linecap="square" d="M344.118,180.955l-16.45-50.474
				l-23.06,71.035l9.061,6.585l13.993-43.063l5.219,15.908L344.118,180.955z"/>
			<path fill="#009B7B" stroke="#010101" stroke-width="0.9768" stroke-linecap="square" d="M354.249,212.192l42.921-31.243
				l-74.684,0.02l-3.464,10.653l45.279,0.001l-13.516,9.878L354.249,212.192z"/>
			<path fill="#009B7B" stroke="#010101" stroke-width="0.9768" stroke-linecap="square" d="M327.67,231.482l42.979,31.164
				l-23.098-71.021l-11.202-0.002l13.992,43.064l-13.572-9.802L327.67,231.482z"/>
			<path fill="#009B7B" stroke="#010101" stroke-width="0.9768" stroke-linecap="square" d="M301.114,212.164l-16.359,50.503
				l60.408-43.914l-3.46-10.654l-36.633,26.616l5.129-15.937L301.114,212.164z"/>
		</g>
		<g>
			<path fill="none" stroke="#000000" stroke-width="1.7894" d="M311.279,180.937l-53.088,0.048l60.432,43.881l9.063-6.582
				l-36.632-26.616l16.742-0.047L311.279,180.937z"/>
			<path fill="none" stroke="#000000" stroke-width="1.7894" d="M344.118,180.955l-16.45-50.474l-23.06,71.035l9.061,6.585
				l13.993-43.063l5.219,15.908L344.118,180.955z"/>
			<path fill="none" stroke="#000000" stroke-width="1.7894" d="M354.249,212.192l42.921-31.243l-74.684,0.02l-3.464,10.653
				l45.279,0.001l-13.516,9.878L354.249,212.192z"/>
			<path fill="none" stroke="#000000" stroke-width="1.7894" d="M327.67,231.482l42.979,31.164l-23.098-71.021l-11.202-0.002
				l13.992,43.064l-13.572-9.802L327.67,231.482z"/>
			<path fill="none" stroke="#000000" stroke-width="1.7894" d="M301.114,212.164l-16.359,50.503l60.408-43.914l-3.46-10.654
				l-36.633,26.616l5.129-15.937L301.114,212.164z"/>
		</g>
	</g>
</g>
<g id="Sidebar">
</g>
</svg>
